# xmcd
#
# Track frame offsets: 
#        183
#        15708
#        27408
#        39258
#        53283
#        63183
#        75708
#        85233
#        97233
#        108933
#        120633
#        132933
#        144558
#        157233
#        169008
#        186033
#        199608
#        216108
#
# Disc length: 3012 seconds
#
# Revision: 6
# Processed by: cddbd v1.5.2PL0 Copyright (c) Steve Scherf et al.
# Submitted via: ExactAudioCopyFreeDBPlugin 1.0
#
DISCID=ee0bc212
DTITLE=Various Artist - THE BEST OF COUNTRY AND WESTERN - VOL. 1
DYEAR=2000
DGENRE=Country
TTITLE0=THE NASHVILLE GAMBLERS - The Roving Gambler
TTITLE1=DON EVERLY - So Sad
TTITLE2=DAVE DUDLEY - Denims And Diamonds
TTITLE3=THE NASHVILLE GAMBLERS - Down In The Valley
TTITLE4=JOHNNY CASH - Hey Porter
TTITLE5=BOBBY BARE - When I Want To Love A Lady
TTITLE6=WILLIE NELSON - Building Heartaches
TTITLE7=DOLLY PARTON - Two Little Orphans
TTITLE8=TOM BENTON - Some Broken Hearts Never Mend
TTITLE9=THE NASHVILLE GAMBLERS - Ol' Dan
TTITLE10=FRANKIE LAINE - High Noon (Do Not Forsake Me)
TTITLE11=LAURA REED - Jolene
TTITLE12=DAVE DUDLEY - Salvation Arms
TTITLE13=ROY DRUSKY - Ramblin' Man
TTITLE14=KENNY FENDER - Sunday Mornin' Comin' Down
TTITLE15=RICK JOHNSON - If You're Goin´ To Tulsa
TTITLE16=DAVE DUDLEY - When My Blue Moon Turns To Gold Again
TTITLE17=THE NASHVILLE GAMBLERS - Texas Stomp
EXTD=
EXTT0=
EXTT1=
EXTT2=
EXTT3=
EXTT4=
EXTT5=
EXTT6=
EXTT7=
EXTT8=
EXTT9=
EXTT10=(Do Not Forsake Me)
EXTT11=
EXTT12=
EXTT13=
EXTT14=
EXTT15=
EXTT16=
EXTT17=
PLAYORDER=
